# xmcd
#
# Track frame offsets: 
#        150
#        27388
#        57228
#        73773
#        98608
#        123288
#        157185
#        164575
#        180043
#        192103
#        226025
#        293180
#
# Disc length: 4387 seconds
#
# Revision: 2
# Processed by: cddbd v1.5.2PL0 Copyright (c) Steve Scherf et al.
# Submitted via: ExactAudioCopy v1.0b6
#
DISCID=9b11210c
DTITLE=西岡たかし／五つの赤い風船 - 西岡たかし 五つの赤い風船 CD-BOX Disc 2 西岡たかしライブ 1973-76-79
DTITLE=VICS-60113-7
DYEAR=2002
DGENRE=JPop
TTITLE0=貝殻節
TTITLE1=メドレー:風の人〜これがボクらの道なのか〜もしもボクの背中に羽根が生えていたら〜風の人
TTITLE2=英雄“風”
TTITLE3=ボクたち大阪の子どもやでェ!
TTITLE4=大阪弁
TTITLE5=哀しい歌
TTITLE6=花と空に…
TTITLE7=めし屋
TTITLE8=べろろん・ワルツ
TTITLE9=満員の木
TTITLE10=血まみれの鳩
TTITLE11=遠い世界に
EXTD=
EXTT0=
EXTT1=
EXTT2=
EXTT3=
EXTT4=
EXTT5=
EXTT6=
EXTT7=
EXTT8=
EXTT9=
EXTT10=
EXTT11=
PLAYORDER=
